# xmcd
#
# Track frame offsets:
#	150
#	19499
#	38360
#	53645
#	71380
#	92740
#	111237
#	130029
#	154140
#	180225
#
# Disc length: 2624 seconds
#
# Revision: 1
# Processed by: cddbd v1.5.2PL0 Copyright (c) Steve Scherf et al.
# Submitted via: audiograbber 1.83.01
#
DISCID=740a3e0a
DTITLE=Willy DeVille - Pistola
DYEAR=2008
DGENRE=BluesRock
TTITLE0=So so real
TTITLE1=Been there done that
TTITLE2=When I get home
TTITLE3=Louise
TTITLE4=The band played on
TTITLE5=You got the world in your hands
TTITLE6=I remember the first time
TTITLE7=Stars that speak
TTITLE8=I'm gonna do something the devil never did
TTITLE9=The mountains of Manhattan
EXTD=
EXTT0=
EXTT1=
EXTT2=
EXTT3=
EXTT4=
EXTT5=
EXTT6=
EXTT7=
EXTT8=
EXTT9=
PLAYORDER=
